<svg width="26" height="26" viewBox="0 0 26 26" fill="none" xmlns="http://www.w3.org/2000/svg">
<path fill-rule="evenodd" clip-rule="evenodd" d="M23.885 13.1999L22.557 14.8389C22.4708 14.9484 22.3444 15.0188 22.206 15.0346C22.0676 15.0504 21.9286 15.0102 21.82 14.9229L20.376 13.7679V20.9499C20.376 21.5269 19.902 21.9999 19.322 21.9999H16.51C15.93 21.9999 15.456 21.5269 15.456 20.9499V17.7679C15.4585 17.1181 15.2007 16.4943 14.74 16.0359C14.2782 15.5757 13.6519 15.3187 13 15.3219C12.3485 15.3192 11.7227 15.5762 11.261 16.0359C10.8003 16.4943 10.5425 17.1181 10.545 17.7679V20.9499C10.545 21.5269 10.071 21.9999 9.491 21.9999H6.678C6.096 21.9999 5.624 21.5299 5.624 20.9499V13.7679L4.18 14.9229C4.07139 15.0102 3.93241 15.0504 3.79399 15.0346C3.65557 15.0188 3.5292 14.9484 3.443 14.8389L2.115 13.1999C2.02786 13.0916 1.9877 12.953 2.00349 12.8149C2.01927 12.6768 2.08968 12.5508 2.199 12.4649L12.673 4.11692C12.8623 3.95875 13.1377 3.95875 13.327 4.11692L23.8 12.4659C23.9093 12.5518 23.9797 12.6778 23.9955 12.8159C24.0113 12.954 23.9711 13.0926 23.884 13.2009" fill="#4F6C4E"/>
</svg>
